HIERARCHY
ROOT hip
{
	OFFSET 0.000000 0.000000 0.000000 
	CHANNELS 6 Xposition Yposition Zposition Xrotation Zrotation Yrotation
	JOINT abdomen
	{
		OFFSET 0.000000 3.402643 0.000000 
		CHANNELS 3 Xrotation Zrotation Yrotation
		JOINT chest
		{
			OFFSET 0.000000 8.438565 -0.680529 
			CHANNELS 3 Xrotation Zrotation Yrotation
			JOINT neck
			{
				OFFSET 0.000000 10.207942 -0.272212 
				CHANNELS 3 Xrotation Zrotation Yrotation
				JOINT head
				{
					OFFSET 0.000000 3.130431 0.000000 
					CHANNELS 3 Xrotation Zrotation Yrotation
					End Site
					{
						OFFSET 0.000000 3.130435 0.000000 
					}
				}
			}
			JOINT lCollar
			{
				OFFSET 3.470700 6.669187 -0.816635 
				CHANNELS 3 Yrotation Zrotation Xrotation
				JOINT lShldr
				{
					OFFSET 3.198488 0.000000 0.000000 
					CHANNELS 3 Zrotation Yrotation Xrotation
					JOINT lForeArm
					{
						OFFSET 10.139888 0.000000 0.000000 
						CHANNELS 3 Yrotation Zrotation Xrotation
						JOINT lHand
						{
							OFFSET 8.370511 0.000000 0.000000 
							CHANNELS 3 Zrotation Yrotation Xrotation
							End Site
							{
								OFFSET 4.083176 0.000000 0.000000 
							}
						}
					}
				}
			}
			JOINT rCollar
			{
				OFFSET -3.470700 6.669187 -0.816635 
				CHANNELS 3 Yrotation Zrotation Xrotation
				JOINT rShldr
				{
					OFFSET -3.198488 0.000000 0.000000 
					CHANNELS 3 Zrotation Yrotation Xrotation
					JOINT rForeArm
					{
						OFFSET -10.139888 0.000000 0.000000 
						CHANNELS 3 Yrotation Zrotation Xrotation
						JOINT rHand
						{
							OFFSET -8.370511 0.000000 0.000000 
							CHANNELS 3 Zrotation Yrotation Xrotation
							End Site
							{
								OFFSET -4.083176 0.000000 0.000000 
							}
						}
					}
				}
			}
		}
	}
	JOINT lThigh
	{
		OFFSET 5.308129 -1.633274 1.361059 
		CHANNELS 3 Xrotation Zrotation Yrotation
		JOINT lShin
		{
			OFFSET -2.041588 -20.007561 0.000000 
			CHANNELS 3 Xrotation Zrotation Yrotation
			JOINT lFoot
			{
				OFFSET 0.000000 -19.190928 -1.224953 
				CHANNELS 3 Xrotation Yrotation Zrotation
				End Site
				{
					OFFSET 0.000000 -2.449906 4.627600 
				}
			}
		}
	}
	JOINT rThigh
	{
		OFFSET -5.308129 -1.633274 1.361059 
		CHANNELS 3 Xrotation Zrotation Yrotation
		JOINT rShin
		{
			OFFSET 2.041588 -20.007561 0.000000 
			CHANNELS 3 Xrotation Zrotation Yrotation
			JOINT rFoot
			{
				OFFSET 0.000000 -19.190928 -1.224953 
				CHANNELS 3 Xrotation Yrotation Zrotation
				End Site
				{
					OFFSET 0.000000 -2.449906 4.627600 
				}
			}
		}
	}
}
MOTION
Frames: 16
Frame Time: 0.050000
-4.233073 45.790085 -1.529066 3.500000 0.000000 -1.000000 31.957333 0.000000 0.000000 23.500002 0.000000 0.000000 0.000000 0.000000 0.000000 -51.708328 3.000000 0.000000 -13.978100 -2.690310 -13.063400 -50.125000 -25.000000 46.241207 -71.501984 22.000000 -21.000000 -62.124996 0.000000 0.000000 15.977892 5.689468 -0.063977 48.909988 20.999500 38.999702 75.042519 -36.000793 -11.000000 63.885216 0.009169 -1.749992 -38.441090 8.204951 -1.450322 66.416664 -3.675253 -6.114883 -31.751337 1.981272 -1.536170 -41.419697 -10.487071 3.698973 66.663383 3.475243 5.820267 -28.734541 2.158634 4.644513 
-4.239311 45.726353 -1.498185 3.600000 0.000000 -1.000000 32.365868 0.000000 0.000000 23.600002 0.000000 0.000000 0.000000 0.000000 0.000000 -52.366661 3.000000 0.000000 -13.978100 -2.690310 -13.063400 -50.500000 -25.000000 46.275665 -66.801590 22.000000 -21.000000 -63.299995 0.000000 0.000000 15.977934 5.689637 -0.063852 49.712532 20.999599 38.999763 69.271263 -36.000633 -11.000000 64.508171 0.007335 -1.799993 -38.589066 8.219627 -1.463817 66.631844 -3.662155 -6.137078 -31.917761 1.980441 -1.533306 -41.623379 -10.482903 3.711822 66.908005 3.468095 5.838927 -28.871599 2.159735 4.637767 
-4.245548 45.662624 -1.467305 3.700000 0.000000 -1.000000 32.774399 0.000000 0.000000 23.700001 0.000000 0.000000 0.000000 0.000000 0.000000 -53.024994 3.000000 0.000000 -13.978100 -2.690310 -13.063400 -50.875000 -25.000000 46.310123 -70.101196 22.000000 -21.000000 -64.474998 0.000000 0.000000 15.977976 5.689805 -0.063727 50.515076 20.999699 38.999825 75.203445 -36.000473 -11.000000 65.131126 0.005501 -1.849995 -38.776863 8.234958 -1.477288 66.856888 -3.658113 -6.156402 -32.054794 1.979954 -1.540647 -41.818008 -10.477520 3.733382 67.152321 3.458699 5.865894 -29.019808 2.140836 4.626041 
-4.251784 45.598896 -1.436424 3.800000 0.000000 -1.000000 33.182934 0.000000 0.000000 23.800001 0.000000 0.000000 0.000000 0.000000 0.000000 -53.683331 3.000000 0.000000 -13.978100 -2.690310 -13.063400 -51.250000 -25.000000 46.344582 -65.400795 22.000000 -21.000000 -65.650002 0.000000 0.000000 15.978017 5.689973 -0.063601 51.317616 20.999800 38.999882 70.135628 -36.000317 -11.000000 65.754082 0.003668 -1.899997 -39.043781 8.254497 -1.493373 67.150169 -3.635494 -6.189903 -32.182255 1.975588 -1.549297 -42.073109 -10.472105 3.755814 67.416252 3.447035 5.893202 -29.138117 2.129286 4.625324 
-4.258022 45.535160 -1.405544 3.900000 0.000000 -1.000000 33.591469 0.000000 0.000000 23.900002 0.000000 0.000000 0.000000 0.000000 0.000000 -54.341667 3.000000 0.000000 -13.978100 -2.690310 -13.063400 -51.625000 -25.000000 46.379044 -70.700394 22.000000 -21.000000 -66.824997 0.000000 0.000000 15.978058 5.690142 -0.063476 52.120155 20.999901 38.999939 75.556351 -36.000160 -11.000000 66.377045 0.001834 -1.949998 -39.232117 8.271346 -1.517107 67.385216 -3.635869 -6.203410 -32.328690 1.982073 -1.544658 -42.236313 -10.467490 3.766096 67.650887 3.432949 5.916240 -29.314854 2.122437 4.607498 
-4.264259 45.471432 -1.374663 4.000000 0.000000 -1.000000 34.000000 0.000000 0.000000 24.000000 0.000000 0.000000 0.000000 0.000000 0.000000 -55.000000 3.000000 0.000000 -13.978100 -2.690310 -13.063400 -52.000000 -25.000000 46.413502 -65.000000 22.000000 -21.000000 -68.000000 0.000000 0.000000 15.978100 5.690310 -0.063351 52.922699 21.000000 39.000000 69.395416 -36.000000 -11.000000 67.000000 0.000000 -2.000000 -39.380131 8.285747 -1.530707 67.610062 -3.625409 -6.228320 -32.505264 1.974286 -1.553411 -42.481091 -10.462358 3.790222 67.924728 3.428892 5.939839 -29.432890 2.114678 4.597986 
-4.224501 46.089363 -1.347773 3.991417 -0.481360 0.849444 32.297302 -0.023682 -0.722542 22.050772 0.000000 0.103965 0.024073 0.144439 -1.227737 -52.447491 5.174990 4.774713 -13.111052 -2.690060 -13.063250 -48.402885 -24.506308 43.214420 -61.919182 22.390577 -22.419163 -59.954575 0.000000 0.010597 16.387375 5.690426 -0.063265 53.655804 18.974249 39.059765 60.905731 -35.238438 -11.166119 61.878323 -0.001253 -1.986021 -38.334057 8.630977 -1.609556 64.969254 -3.718018 -5.962428 -30.926594 1.853065 -1.753222 -40.685642 -10.175545 3.452978 65.495323 3.573881 5.548745 -27.707289 1.489793 4.302873 
-4.112578 47.539856 -1.313293 3.847097 -1.753974 5.738978 27.326605 -0.086948 -2.576410 16.823477 0.000000 0.396124 0.087730 0.526379 -4.474225 -45.071121 9.359001 15.427204 -10.819002 -2.689810 -13.063099 -40.214405 -21.582701 34.800507 -59.500027 22.939487 -26.173746 -41.468868 0.000000 0.021195 17.469561 5.690526 -0.063192 54.134171 13.429044 38.788963 48.790348 -32.961491 -12.374770 49.713413 -0.002335 -1.888216 -36.277073 9.561818 -1.761544 59.518494 -3.894862 -5.404717 -27.582991 1.431224 -2.148767 -36.840378 -9.316638 2.757481 60.636883 3.870538 4.627600 -23.857092 -0.130970 3.722294 
-3.953545 49.074547 -1.271026 3.614180 -3.560640 12.680400 20.213200 -0.178125 -5.090970 9.473690 0.000000 0.846875 0.178125 1.068750 -9.084380 -34.773899 12.040600 26.450001 -7.565600 -2.690310 -13.063400 -32.182598 -14.065400 23.024300 -55.151600 22.712500 -31.509399 -23.662500 0.000000 0.000000 19.006300 5.690620 -0.063122 53.582100 5.162680 37.512600 39.217701 -29.180401 -15.691400 36.707100 -0.003357 -1.735290 -33.945469 10.733513 -2.097629 51.890671 -4.050440 -4.588079 -22.690372 1.083206 -2.673338 -32.158447 -7.892643 1.919622 53.929371 4.148229 3.281063 -18.185446 -2.338051 3.483213 
-3.749437 50.100780 -1.223443 3.335071 -5.653720 20.722246 12.154552 -0.285741 -7.795665 1.251565 0.000000 1.487266 0.283107 1.698641 -14.438452 -23.517626 10.728477 33.459133 -3.789027 -2.691996 -13.064412 -27.842731 -1.146352 9.633535 -47.198692 21.035198 -37.711182 -15.053589 0.000000 -0.063584 20.791008 5.690711 -0.063053 51.603420 -4.842078 34.892712 36.501900 -24.210953 -21.834837 27.772718 -0.004368 -1.552879 -33.083687 11.795653 -2.841818 45.630512 -4.092252 -3.907877 -18.246864 1.140560 -3.068788 -28.844421 -6.262592 1.130496 49.169010 4.355372 1.975342 -13.135777 -4.483757 3.926917 
-3.410186 50.648678 -1.183666 3.033220 -7.823815 29.059978 4.636918 -0.399126 -10.220234 -6.214418 0.000000 2.590940 0.393295 2.359767 -20.058020 -13.499369 7.011833 36.564621 0.174361 -2.694043 -13.065639 -25.878994 12.559532 -4.043220 -37.629063 18.272415 -44.221779 -13.754229 0.000000 -0.095376 22.664207 5.690782 -0.062998 49.320114 -14.864576 31.939501 37.539768 -19.587185 -30.137426 22.669676 -0.005169 -1.354350 -33.742107 12.447849 -3.615358 41.329060 -4.063754 -3.450131 -14.746431 1.434130 -3.134677 -27.084087 -4.782605 0.503364 46.494793 4.516129 0.833217 -9.236567 -6.259734 5.314940 
-2.822703 50.904053 -1.167482 2.727340 -9.871090 36.925800 -0.781250 -0.507813 -11.894500 -11.201200 0.000000 4.492190 0.500000 3.000000 -25.500000 -6.975000 3.500000 37.000000 4.013670 -2.695310 -13.066400 -23.762800 21.081600 -16.782200 -29.346201 15.048800 -50.523300 -15.275000 0.000000 0.000000 24.478201 5.690810 -0.062975 48.233700 -22.999701 30.000200 37.373798 -17.147699 -39.584900 19.868900 -0.005501 -1.150000 -35.069195 12.408233 -4.083552 38.399300 -4.017815 -3.147206 -12.191683 1.946442 -2.712131 -26.288183 -3.827563 0.094780 45.200649 4.673812 -0.151778 -6.606551 -7.353279 7.554159 
-1.931660 51.001541 -1.181939 2.432136 -11.645646 43.743782 -3.000927 -0.603793 -12.307303 -12.427493 0.000000 7.429960 0.596496 3.578978 -30.421324 -5.514757 2.216861 35.788456 7.488079 -2.694980 -13.066201 -19.435287 20.217564 -27.532341 -24.582714 12.025495 -56.215054 -15.998863 0.000000 0.262283 26.118631 5.690781 -0.062997 49.338905 -27.675310 29.715776 32.411877 -18.184153 -49.388359 18.084967 -0.005185 -0.948384 -36.377174 11.729469 -4.261489 36.575424 -3.998567 -2.956054 -10.730131 2.794736 -1.876521 -25.762856 -3.465264 -0.098381 44.522511 4.811076 -1.003179 -5.134769 -7.654998 10.301708 
-0.912771 50.871006 -1.199126 2.146279 -13.197339 49.705482 -2.760806 -0.688908 -10.783592 -10.379120 0.000000 11.261781 0.683901 4.103405 -34.878983 -7.946328 2.844509 33.111893 10.637057 -2.693515 -13.065323 -12.716460 12.838573 -35.933338 -22.887680 10.009655 -61.365120 -15.798279 0.000000 0.508671 27.604500 5.690707 -0.063053 51.603306 -28.651199 28.902077 24.523481 -21.800392 -59.660343 17.007072 -0.004360 -0.751081 -37.978687 10.754931 -4.316571 36.390057 -3.988173 -2.928403 -10.537687 3.848337 -0.914541 -25.646198 -3.418437 -0.159164 45.018250 4.963086 -1.634683 -5.076837 -7.575800 13.131558 
0.000486 50.391148 -1.182394 1.864429 -14.625959 55.194344 -1.259008 -0.767460 -6.607334 -5.983675 0.000000 15.749832 0.765293 4.591756 -39.029976 -12.411759 4.479590 28.941881 13.570148 -2.691697 -13.064233 -3.896021 3.584134 -41.797592 -23.139278 9.844938 -66.158768 -15.418079 0.000000 0.500723 28.988144 5.690607 -0.063129 53.487675 -26.020138 24.668663 16.943470 -26.553308 -70.738754 16.568066 -0.003246 -0.557926 -40.562630 9.739911 -4.438111 38.389542 -4.013144 -3.154590 -11.550107 4.989695 -0.062063 -26.420597 -3.420988 -0.212081 47.428570 5.117280 -1.999020 -6.624414 -7.481988 15.846004 
0.574640 49.440655 -1.095090 1.581250 -16.031300 60.593800 0.306343 -0.843750 0.937500 -0.168751 0.000000 20.656300 0.843750 5.062500 -43.031300 -17.053101 6.218750 23.250000 16.396900 -2.690310 -13.063400 6.736320 -2.906250 -44.937500 -24.215700 12.375000 -70.781303 -15.603100 0.000000 0.000000 30.321899 5.690500 -0.063210 53.452801 -19.874901 14.125100 12.906700 -30.999800 -82.961502 16.700800 -0.002063 -0.368752 -44.731670 8.809138 -4.658563 42.956223 -4.063484 -3.632886 -13.604267 5.994933 0.559394 -28.622248 -3.288189 -0.362947 52.340984 5.275710 -1.986745 -9.816907 -7.729295 18.309925 
